<svg width="54" height="54" viewBox="0 0 54 54" fill="none" xmlns="http://www.w3.org/2000/svg">
<path d="M50.1429 0H3.84509C1.72366 0 0 1.74777 0 3.8933V50.1067C0 52.2522 1.72366 54 3.84509 54H50.1429C52.2643 54 54 52.2522 54 50.1067V3.8933C54 1.74777 52.2643 0 50.1429 0ZM16.3205 46.2857H8.31696V20.5152H16.3326V46.2857H16.3205ZM12.3187 16.9955C9.75134 16.9955 7.67813 14.9103 7.67813 12.3549C7.67813 9.79955 9.75134 7.71429 12.3187 7.71429C14.8741 7.71429 16.9594 9.79955 16.9594 12.3549C16.9594 14.9223 14.8862 16.9955 12.3187 16.9955ZM46.3219 46.2857H38.3183V33.75C38.3183 30.7607 38.258 26.9156 34.1598 26.9156C29.9893 26.9156 29.3504 30.1701 29.3504 33.533V46.2857H21.3469V20.5152H29.025V24.0348H29.1335C30.2063 22.0098 32.8219 19.8763 36.7152 19.8763C44.8152 19.8763 46.3219 25.2161 46.3219 32.1589V46.2857Z" fill="white"/>
</svg>
