<svg width="168" height="158" viewBox="0 0 168 158" fill="none" xmlns="http://www.w3.org/2000/svg">
<path d="M8.178 132.7H16.646L25.636 153H14.674L11.629 146.272H5.249L2.639 153H0.522L8.178 132.7ZM10.817 144.503L8.178 138.616L5.887 144.503H10.817ZM26.7817 132.7H35.3077L43.7757 142.85V132.7H45.5157V153H38.7007L28.5507 139.486V153H26.7817V132.7ZM47.144 142.821C47.144 139.399 47.985 136.857 49.667 135.194C50.7497 134.111 51.958 133.396 53.292 133.048C54.626 132.7 56.3757 132.526 58.541 132.526C60.5517 132.526 62.166 132.671 63.384 132.961C64.6214 133.232 65.6364 133.821 66.429 134.73C67.0864 135.484 67.5987 136.402 67.966 137.485C68.3527 138.548 68.575 139.592 68.633 140.617H66.98C66.9027 139.747 66.69 138.858 66.342 137.949C66.0134 137.021 65.4914 136.228 64.776 135.571C64.0607 134.894 63.152 134.556 62.05 134.556C61.0254 134.556 60.1747 135.01 59.498 135.919C58.918 136.712 58.5024 137.765 58.251 139.08C58.019 140.24 57.903 141.487 57.903 142.821C57.903 145.006 58.1737 146.833 58.715 148.302C59.4304 150.177 60.542 151.115 62.05 151.115V143.082H70.924V153C68.14 153 64.9887 153.039 61.47 153.116L58.541 153.145C56.4144 153.145 54.684 152.942 53.35 152.536C52.0354 152.111 50.9044 151.424 49.957 150.477C48.0817 148.602 47.144 146.05 47.144 142.821ZM82.2914 153.145C78.792 153.145 76.2884 152.633 74.7804 151.608C73.2917 150.583 72.5474 149.017 72.5474 146.91V132.7H83.6254V146.91C83.6254 148.283 83.925 149.288 84.5244 149.926C85.143 150.545 85.955 150.854 86.9604 150.854C89.203 150.854 90.3244 149.539 90.3244 146.91V132.7H92.0354V146.91C92.0354 148.553 91.6874 149.829 90.9914 150.738C90.2954 151.627 89.2514 152.256 87.8594 152.623C86.4674 152.971 84.6114 153.145 82.2914 153.145ZM93.646 132.7H103.825V151.26H114.845V153H93.646V132.7ZM123.668 132.7H132.136L141.126 153H130.164L127.119 146.272H120.739L118.129 153H116.012L123.668 132.7ZM126.307 144.503L123.668 138.616L121.377 144.503H126.307ZM142.272 132.7H161.673C162.62 132.7 163.49 132.942 164.283 133.425C165.095 133.889 165.733 134.527 166.197 135.339C166.68 136.132 166.922 137.002 166.922 137.949C166.922 139.206 166.535 140.346 165.762 141.371C164.989 142.396 164.012 143.053 162.833 143.343C163.877 143.633 164.728 144.184 165.385 144.996C166.062 145.808 166.4 146.726 166.4 147.751V153H156.685V146.707C156.685 146.088 156.569 145.605 156.337 145.257C156.066 144.851 155.757 144.551 155.409 144.358C155.022 144.145 154.587 143.991 154.104 143.894C153.601 143.797 153.128 143.739 152.683 143.72L151.9 143.691V153H142.272V132.7ZM152.915 142.009C153.611 142.009 154.249 141.845 154.829 141.516C155.428 141.168 155.892 140.704 156.221 140.124C156.569 139.525 156.743 138.887 156.743 138.21C156.743 137.514 156.569 136.876 156.221 136.296C155.892 135.697 155.428 135.223 154.829 134.875C154.249 134.527 153.611 134.353 152.915 134.353H151.9V142.038L152.915 142.009Z" fill="white"/>
<path d="M74.8325 52.7009H93.1675L84 32.2545L74.8325 52.7009ZM84 0L34 16.6071L41.6516 78.1473L84 100L126.348 78.1473L134 16.6071L84 0ZM115.328 76.2946H103.634L97.3301 61.6964H70.718L64.4139 76.2946H52.6959L84 11.0491L115.328 76.2946Z" fill="white"/>
</svg>
