<svg width="83" height="158" viewBox="0 0 83 158" fill="none" xmlns="http://www.w3.org/2000/svg">
<path d="M0 0L7.54349 88.3482L41.5 100L75.4565 88.3482L83 0H0ZM67.6753 17.8571L66.6378 28.4152L41.7161 39.4196L41.6513 39.442H65.7516L62.9849 72.1652L41.7594 78.5714L20.4042 72.0536L19.0208 55.558H29.5904L30.282 64.1071L41.6513 67.0759L53.4745 63.6384L54.2742 49.8884L18.3292 49.7768V49.7545L18.2859 49.7768L17.5078 39.442L41.7378 29.0179L43.1427 28.4152H16.5784L15.3247 17.8571H67.6753Z" fill="white"/>
<path d="M21.689 151.115C23.139 151.115 24.2893 150.525 25.14 149.346C25.9907 148.167 26.5417 146.736 26.793 145.054H28.591C28.3203 147.142 27.634 148.921 26.532 150.39C25.9133 151.202 25.2077 151.811 24.415 152.217C23.6417 152.604 22.7813 152.855 21.834 152.971C20.906 153.087 19.688 153.145 18.18 153.145C16.0533 153.145 14.323 152.942 12.989 152.536C11.6743 152.111 10.5433 151.424 9.596 150.477C7.74 148.621 6.812 146.069 6.812 142.821C6.812 139.399 7.64333 136.857 9.306 135.194C10.3887 134.111 11.597 133.396 12.931 133.048C14.265 132.7 16.0147 132.526 18.18 132.526C20.1713 132.526 21.7857 132.671 23.023 132.961C24.2797 133.232 25.3043 133.821 26.097 134.73C26.7543 135.484 27.2667 136.393 27.634 137.456C28.0013 138.519 28.214 139.573 28.272 140.617H26.619C26.5417 139.747 26.329 138.858 25.981 137.949C25.6523 137.021 25.1303 136.228 24.415 135.571C23.6997 134.894 22.791 134.556 21.689 134.556C20.645 134.556 19.804 135.01 19.166 135.919C18.6053 136.634 18.18 137.688 17.89 139.08C17.6773 140.143 17.571 141.39 17.571 142.821C17.571 145.083 17.8417 146.91 18.383 148.302C19.079 150.177 20.181 151.115 21.689 151.115ZM45.5166 139.979C47.8172 140.598 49.5379 141.419 50.6786 142.444C51.8192 143.449 52.3896 144.764 52.3896 146.388C52.3896 147.683 51.9836 148.843 51.1716 149.868C50.3596 150.893 49.1609 151.695 47.5756 152.275C46.0096 152.855 44.1052 153.145 41.8626 153.145C39.2139 153.145 36.8746 152.807 34.8446 152.13C32.8339 151.434 31.2582 150.593 30.1176 149.607L31.0746 148.302C32.0799 149.095 33.3462 149.771 34.8736 150.332C36.4009 150.893 38.0442 151.173 39.8036 151.173C40.9442 151.173 41.8046 151.009 42.3846 150.68C42.9839 150.351 43.2836 149.887 43.2836 149.288C43.2836 148.244 42.2492 147.432 40.1806 146.852L36.4106 145.75C34.3612 145.131 32.7759 144.271 31.6546 143.169C30.5526 142.067 30.0016 140.762 30.0016 139.254C30.0016 137.997 30.3979 136.857 31.1906 135.832C31.9832 134.807 33.1336 134.005 34.6416 133.425C36.1689 132.826 37.9959 132.526 40.1226 132.526C42.1526 132.526 44.0182 132.758 45.7196 133.222C47.4402 133.686 48.8419 134.247 49.9246 134.904L48.9676 136.238C48.0589 135.716 46.9666 135.271 45.6906 134.904C44.4339 134.537 43.1096 134.353 41.7176 134.353C40.4996 134.353 39.5619 134.546 38.9046 134.933C38.2666 135.3 37.9476 135.813 37.9476 136.47C37.9476 136.973 38.1892 137.417 38.6726 137.804C39.1559 138.171 40.0742 138.539 41.4276 138.906L45.5166 139.979ZM68.541 139.979C70.8417 140.598 72.5623 141.419 73.703 142.444C74.8437 143.449 75.414 144.764 75.414 146.388C75.414 147.683 75.008 148.843 74.196 149.868C73.384 150.893 72.1853 151.695 70.6 152.275C69.034 152.855 67.1297 153.145 64.887 153.145C62.2383 153.145 59.899 152.807 57.869 152.13C55.8583 151.434 54.2827 150.593 53.142 149.607L54.099 148.302C55.1043 149.095 56.3707 149.771 57.898 150.332C59.4253 150.893 61.0687 151.173 62.828 151.173C63.9687 151.173 64.829 151.009 65.409 150.68C66.0083 150.351 66.308 149.887 66.308 149.288C66.308 148.244 65.2737 147.432 63.205 146.852L59.435 145.75C57.3857 145.131 55.8003 144.271 54.679 143.169C53.577 142.067 53.026 140.762 53.026 139.254C53.026 137.997 53.4223 136.857 54.215 135.832C55.0077 134.807 56.158 134.005 57.666 133.425C59.1933 132.826 61.0203 132.526 63.147 132.526C65.177 132.526 67.0427 132.758 68.744 133.222C70.4647 133.686 71.8663 134.247 72.949 134.904L71.992 136.238C71.0833 135.716 69.991 135.271 68.715 134.904C67.4583 134.537 66.134 134.353 64.742 134.353C63.524 134.353 62.5863 134.546 61.929 134.933C61.291 135.3 60.972 135.813 60.972 136.47C60.972 136.973 61.2137 137.417 61.697 137.804C62.1803 138.171 63.0987 138.539 64.452 138.906L68.541 139.979Z" fill="white"/>
</svg>
