<svg width="139" height="158" viewBox="0 0 139 158" fill="none" xmlns="http://www.w3.org/2000/svg">
<path d="M0.812 142.821C0.812 139.399 1.653 136.857 3.335 135.194C4.41767 134.111 5.626 133.396 6.96 133.048C8.294 132.7 10.0437 132.526 12.209 132.526C14.2197 132.526 15.834 132.671 17.052 132.961C18.2893 133.232 19.3043 133.821 20.097 134.73C20.7543 135.484 21.2667 136.402 21.634 137.485C22.0207 138.548 22.243 139.592 22.301 140.617H20.648C20.5707 139.747 20.358 138.858 20.01 137.949C19.6813 137.021 19.1593 136.228 18.444 135.571C17.7287 134.894 16.82 134.556 15.718 134.556C14.6933 134.556 13.8427 135.01 13.166 135.919C12.586 136.712 12.1703 137.765 11.919 139.08C11.687 140.24 11.571 141.487 11.571 142.821C11.571 145.006 11.8417 146.833 12.383 148.302C13.0983 150.177 14.21 151.115 15.718 151.115V143.082H24.592V153C21.808 153 18.6567 153.039 15.138 153.116L12.209 153.145C10.0823 153.145 8.352 152.942 7.018 152.536C5.70333 152.111 4.57233 151.424 3.625 150.477C1.74967 148.602 0.812 146.05 0.812 142.821ZM26.2153 132.7H35.6693V153H26.2153V132.7ZM44.7409 134.411H37.1139V132.7H62.5469V134.411H54.8909V153H44.7409V134.411ZM63.9663 132.7H73.8263V141.777H80.2353V132.7H90.0953V153H80.2353V143.72H73.8263V153H63.9663V132.7ZM101.464 153.145C97.9649 153.145 95.4612 152.633 93.9532 151.608C92.4645 150.583 91.7202 149.017 91.7202 146.91V132.7H102.798V146.91C102.798 148.283 103.098 149.288 103.697 149.926C104.316 150.545 105.128 150.854 106.133 150.854C108.376 150.854 109.497 149.539 109.497 146.91V132.7H111.208V146.91C111.208 148.553 110.86 149.829 110.164 150.738C109.468 151.627 108.424 152.256 107.032 152.623C105.64 152.971 103.784 153.145 101.464 153.145ZM113.051 132.7H132.394C133.38 132.7 134.279 132.942 135.091 133.425C135.922 133.889 136.58 134.537 137.063 135.368C137.546 136.18 137.788 137.079 137.788 138.065C137.788 139.012 137.556 139.911 137.092 140.762C136.628 141.613 136.009 142.299 135.236 142.821C136.009 143.362 136.628 144.068 137.092 144.938C137.556 145.789 137.788 146.688 137.788 147.635C137.788 148.602 137.546 149.501 137.063 150.332C136.58 151.144 135.922 151.792 135.091 152.275C134.279 152.758 133.38 153 132.394 153H113.051V132.7ZM123.665 142.009C124.361 142.009 124.999 141.845 125.579 141.516C126.178 141.168 126.642 140.704 126.971 140.124C127.319 139.525 127.493 138.887 127.493 138.21C127.493 137.514 127.319 136.876 126.971 136.296C126.642 135.697 126.178 135.223 125.579 134.875C124.999 134.527 124.361 134.353 123.665 134.353H123.23V141.98C123.327 141.999 123.472 142.009 123.665 142.009ZM123.665 151.318C124.361 151.318 124.999 151.154 125.579 150.825C126.178 150.477 126.642 150.013 126.971 149.433C127.319 148.834 127.493 148.186 127.493 147.49C127.493 146.813 127.319 146.185 126.971 145.605C126.642 145.006 126.178 144.542 125.579 144.213C124.999 143.865 124.361 143.691 123.665 143.691H123.23V151.289C123.327 151.308 123.472 151.318 123.665 151.318Z" fill="white"/>
<path d="M106.525 0H33.023C27.4895 0 23 4.79911 23 10.7143V89.2857C23 95.2009 27.4895 100 33.023 100H106.525C112.059 100 116.548 95.2009 116.548 89.2857V10.7143C116.548 4.79911 112.059 0 106.525 0ZM80.9039 85.6473C79.1499 85.9821 78.5026 84.8214 78.5026 83.8616C78.5026 82.6563 78.5444 76.4955 78.5444 71.5179C78.5444 68.0357 77.4585 65.8259 76.1848 64.6652C83.9109 63.75 92.0546 62.6116 92.0546 48.3482C92.0546 44.2857 90.6973 42.2545 88.4839 39.6429C88.8389 38.683 90.0291 34.7321 88.1289 29.5982C85.2264 28.6384 78.5861 33.5937 78.5861 33.5937C75.8298 32.7679 72.8437 32.3437 69.8995 32.3437C66.9552 32.3437 63.9692 32.7679 61.2128 33.5937C61.2128 33.5937 54.5726 28.6384 51.6701 29.5982C49.7699 34.7098 50.9392 38.6607 51.3151 39.6429C49.1017 42.2545 48.0576 44.2857 48.0576 48.3482C48.0576 62.5446 55.8463 63.75 63.5724 64.6652C62.5701 65.625 61.6722 67.2768 61.359 69.6429C59.3753 70.6027 54.3011 72.2545 51.2733 66.5402C49.3731 63.0134 45.9486 62.7232 45.9486 62.7232C42.5658 62.6786 45.7189 65 45.7189 65C47.9741 66.1161 49.5611 70.4018 49.5611 70.4018C51.5865 77.0312 61.2755 74.7991 61.2755 74.7991C61.2755 77.9018 61.3173 82.9464 61.3173 83.8616C61.3173 84.8214 60.6908 85.9821 58.9159 85.6473C45.1342 80.7143 35.487 66.6964 35.487 50.3125C35.487 29.8214 50.1457 14.2634 69.3148 14.2634C88.4839 14.2634 104.02 29.8214 104.02 50.3125C104.04 66.6964 94.6856 80.7366 80.9039 85.6473ZM60.4194 72.0089C60.0226 72.0982 59.6467 71.9196 59.605 71.6295C59.5632 71.2946 59.8347 71.0045 60.2314 70.9152C60.6282 70.8705 61.004 71.0491 61.0458 71.3393C61.1084 71.6295 60.837 71.9196 60.4194 72.0089ZM58.4356 71.808C58.4356 72.0982 58.1224 72.3438 57.7048 72.3438C57.2454 72.3884 56.9322 72.1429 56.9322 71.808C56.9322 71.5179 57.2454 71.2723 57.663 71.2723C58.0598 71.2277 58.4356 71.4732 58.4356 71.808ZM55.5749 71.5625C55.4914 71.8527 55.0737 71.9866 54.7187 71.8527C54.322 71.7634 54.0505 71.4286 54.1341 71.1384C54.2176 70.8482 54.6352 70.7143 54.9902 70.8036C55.4078 70.9375 55.6793 71.2723 55.5749 71.5625ZM53.0065 70.3571C52.8185 70.6027 52.4218 70.558 52.1086 70.2232C51.7954 69.933 51.7118 69.5089 51.9206 69.308C52.1086 69.0625 52.5053 69.1071 52.8185 69.442C53.09 69.7321 53.1944 70.1786 53.0065 70.3571ZM51.1063 68.3259C50.9183 68.4598 50.5634 68.3259 50.3337 67.9911C50.104 67.6563 50.104 67.2768 50.3337 67.1205C50.5634 66.9196 50.9183 67.0759 51.1063 67.4107C51.336 67.7455 51.336 68.1473 51.1063 68.3259ZM49.749 66.1607C49.5611 66.3616 49.2478 66.25 49.0181 66.0268C48.7884 65.7366 48.7467 65.4018 48.9346 65.2455C49.1225 65.0446 49.4358 65.1562 49.6655 65.3795C49.8952 65.6696 49.9369 66.0045 49.749 66.1607ZM48.3499 64.5089C48.2664 64.7098 47.995 64.7545 47.7653 64.5982C47.4938 64.4643 47.3685 64.2187 47.452 64.0179C47.5356 63.8839 47.7653 63.817 48.0367 63.9286C48.3082 64.0848 48.4335 64.3304 48.3499 64.5089Z" fill="white"/>
</svg>
