<svg width="105" height="153" viewBox="0 0 105 153" fill="none" xmlns="http://www.w3.org/2000/svg">
<path d="M11 0L18.5435 88.3482L52.3919 100L86.4565 88.3482L94 0H11ZM77.6161 28.5491H37.8885L38.7747 39.5759H76.7299L73.7904 72.7009L52.6297 78.7277V78.7946H52.3919L31.0583 72.7009L29.7615 55.7812H40.0716L40.8281 64.2857L52.3919 67.5223L63.999 64.2857L65.2958 50.4018H29.2211L26.4544 17.9018H78.5672L77.6161 28.5491Z" fill="white"/>
<path d="M0.812 127.7H10.672V136.777H17.081V127.7H26.941V148H17.081V138.72H10.672V148H0.812V127.7ZM35.9899 129.411H28.3629V127.7H53.7959V129.411H46.1399V148H35.9899V129.411ZM56.9263 134.486V148H55.2153V127.7H63.6833L67.9173 136.168L71.2813 127.7H80.5613V148H71.2813V132.775L65.3653 148H62.8423L56.9263 134.486ZM82.2046 127.7H92.3836V146.26H103.404V148H82.2046V127.7Z" fill="white"/>
</svg>
