<svg width="218" height="158" viewBox="0 0 218 158" fill="none" xmlns="http://www.w3.org/2000/svg">
<path d="M10.556 153.145C8.236 153.145 6.38 152.971 4.988 152.623C3.596 152.256 2.552 151.627 1.856 150.738C1.16 149.829 0.812 148.553 0.812 146.91V145.315H2.523V146.91C2.523 149.539 3.64433 150.854 5.887 150.854C6.89233 150.854 7.69467 150.545 8.294 149.926C8.91267 149.288 9.222 148.283 9.222 146.91V132.7H20.3V146.91C20.3 149.017 19.546 150.583 18.038 151.608C16.5493 152.633 14.0553 153.145 10.556 153.145ZM28.8801 132.7H37.3481L46.3382 153H35.3761L32.3311 146.272H25.9511L23.3411 153H21.2241L28.8801 132.7ZM31.5191 144.503L28.8801 138.616L26.5891 144.503H31.5191ZM39.8825 132.7H49.2785L55.9195 147.664L61.4875 132.7H63.7205L56.0645 153H48.8725L39.8825 132.7ZM66.0081 132.7H74.4761L83.4661 153H72.5041L69.4591 146.272H63.0791L60.4691 153H58.3521L66.0081 132.7ZM68.6471 144.503L66.0081 138.616L63.7171 144.503H68.6471ZM98.6777 139.979C100.978 140.598 102.699 141.419 103.84 142.444C104.98 143.449 105.551 144.764 105.551 146.388C105.551 147.683 105.145 148.843 104.333 149.868C103.521 150.893 102.322 151.695 100.737 152.275C99.1707 152.855 97.2664 153.145 95.0237 153.145C92.375 153.145 90.0357 152.807 88.0057 152.13C85.995 151.434 84.4194 150.593 83.2787 149.607L84.2357 148.302C85.241 149.095 86.5074 149.771 88.0347 150.332C89.562 150.893 91.2054 151.173 92.9647 151.173C94.1054 151.173 94.9657 151.009 95.5457 150.68C96.145 150.351 96.4447 149.887 96.4447 149.288C96.4447 148.244 95.4104 147.432 93.3417 146.852L89.5717 145.75C87.5224 145.131 85.937 144.271 84.8157 143.169C83.7137 142.067 83.1627 140.762 83.1627 139.254C83.1627 137.997 83.559 136.857 84.3517 135.832C85.1444 134.807 86.2947 134.005 87.8027 133.425C89.33 132.826 91.157 132.526 93.2837 132.526C95.3137 132.526 97.1794 132.758 98.8807 133.222C100.601 133.686 102.003 134.247 103.086 134.904L102.129 136.238C101.22 135.716 100.128 135.271 98.8517 134.904C97.595 134.537 96.2707 134.353 94.8787 134.353C93.6607 134.353 92.723 134.546 92.0657 134.933C91.4277 135.3 91.1087 135.813 91.1087 136.47C91.1087 136.973 91.3504 137.417 91.8337 137.804C92.317 138.171 93.2354 138.539 94.5887 138.906L98.6777 139.979ZM121.692 151.115C123.142 151.115 124.292 150.525 125.143 149.346C125.994 148.167 126.545 146.736 126.796 145.054H128.594C128.323 147.142 127.637 148.921 126.535 150.39C125.916 151.202 125.211 151.811 124.418 152.217C123.645 152.604 122.784 152.855 121.837 152.971C120.909 153.087 119.691 153.145 118.183 153.145C116.056 153.145 114.326 152.942 112.992 152.536C111.677 152.111 110.546 151.424 109.599 150.477C107.743 148.621 106.815 146.069 106.815 142.821C106.815 139.399 107.646 136.857 109.309 135.194C110.392 134.111 111.6 133.396 112.934 133.048C114.268 132.7 116.018 132.526 118.183 132.526C120.174 132.526 121.789 132.671 123.026 132.961C124.283 133.232 125.307 133.821 126.1 134.73C126.757 135.484 127.27 136.393 127.637 137.456C128.004 138.519 128.217 139.573 128.275 140.617H126.622C126.545 139.747 126.332 138.858 125.984 137.949C125.655 137.021 125.133 136.228 124.418 135.571C123.703 134.894 122.794 134.556 121.692 134.556C120.648 134.556 119.807 135.01 119.169 135.919C118.608 136.634 118.183 137.688 117.893 139.08C117.68 140.143 117.574 141.39 117.574 142.821C117.574 145.083 117.845 146.91 118.386 148.302C119.082 150.177 120.184 151.115 121.692 151.115ZM130.009 132.7H149.41C150.358 132.7 151.228 132.942 152.02 133.425C152.832 133.889 153.47 134.527 153.934 135.339C154.418 136.132 154.659 137.002 154.659 137.949C154.659 139.206 154.273 140.346 153.499 141.371C152.726 142.396 151.75 143.053 150.57 143.343C151.614 143.633 152.465 144.184 153.122 144.996C153.799 145.808 154.137 146.726 154.137 147.751V153H144.422V146.707C144.422 146.088 144.306 145.605 144.074 145.257C143.804 144.851 143.494 144.551 143.146 144.358C142.76 144.145 142.325 143.991 141.841 143.894C141.339 143.797 140.865 143.739 140.42 143.72L139.637 143.691V153H130.009V132.7ZM140.652 142.009C141.348 142.009 141.986 141.845 142.566 141.516C143.166 141.168 143.63 140.704 143.958 140.124C144.306 139.525 144.48 138.887 144.48 138.21C144.48 137.514 144.306 136.876 143.958 136.296C143.63 135.697 143.166 135.223 142.566 134.875C141.986 134.527 141.348 134.353 140.652 134.353H139.637V142.038L140.652 142.009ZM156.121 132.7H165.575V153H156.121V132.7ZM167.222 132.7H185.637C187.338 132.7 188.711 133.193 189.755 134.179C190.799 135.146 191.321 136.46 191.321 138.123C191.321 139.109 191.079 140.027 190.596 140.878C190.113 141.729 189.446 142.405 188.595 142.908C187.744 143.411 186.778 143.662 185.695 143.662L176.85 143.691V153H167.222V132.7ZM177.865 142.009C178.561 142.009 179.199 141.845 179.779 141.516C180.378 141.168 180.842 140.704 181.171 140.124C181.519 139.525 181.693 138.887 181.693 138.21C181.693 137.514 181.519 136.876 181.171 136.296C180.842 135.697 180.378 135.223 179.779 134.875C179.199 134.527 178.561 134.353 177.865 134.353H176.85V142.009H177.865ZM199.341 134.411H191.714V132.7H217.147V134.411H209.491V153H199.341V134.411Z" fill="white"/>
<path d="M149.006 0H69.8007C63.8378 0 59 4.79911 59 10.7143V89.2857C59 95.2009 63.8378 100 69.8007 100H149.006C154.969 100 159.806 95.2009 159.806 89.2857V10.7143C159.806 4.79911 154.969 0 149.006 0ZM113.859 77.9911C113.859 87.7232 108.098 92.1652 99.7051 92.1652C92.1221 92.1652 87.7343 88.2812 85.4842 83.5714L93.2022 78.9509C94.6873 81.5625 96.0374 83.7723 99.3001 83.7723C102.405 83.7723 104.385 82.567 104.385 77.8571V45.9152H113.859V77.9911ZM136.27 92.1652C127.472 92.1652 121.779 88.0134 119.011 82.567L126.729 78.1473C128.754 81.4286 131.41 83.8616 136.067 83.8616C139.983 83.8616 142.503 81.9196 142.503 79.2187C142.503 76.0045 139.938 74.8661 135.595 72.9687L133.232 71.9643C126.392 69.0848 121.869 65.4464 121.869 57.7902C121.869 50.7366 127.292 45.3795 135.73 45.3795C141.76 45.3795 146.081 47.4554 149.186 52.9018L141.805 57.5893C140.185 54.7098 138.43 53.5714 135.707 53.5714C132.94 53.5714 131.185 55.3125 131.185 57.5893C131.185 60.4018 132.94 61.5402 137.012 63.3036L139.375 64.308C147.431 67.7232 151.953 71.2277 151.953 79.0848C151.953 87.5223 145.248 92.1652 136.27 92.1652Z" fill="white"/>
</svg>
