<svg width="144" height="158" viewBox="0 0 144 158" fill="none" xmlns="http://www.w3.org/2000/svg">
<path d="M0.812 132.7H9.338L17.806 142.85V132.7H19.546V153H12.731L2.581 139.486V153H0.812V132.7ZM34.7463 153.145C32.1556 153.145 29.8163 152.749 27.7283 151.956C25.6403 151.163 23.9873 149.994 22.7693 148.447C21.5706 146.881 20.9713 145.006 20.9713 142.821C20.9713 140.656 21.5803 138.8 22.7983 137.253C24.0163 135.706 25.6596 134.537 27.7283 133.744C29.8163 132.932 32.1556 132.526 34.7463 132.526C37.3176 132.526 39.6376 132.932 41.7063 133.744C43.7943 134.537 45.4376 135.706 46.6363 137.253C47.8543 138.8 48.4633 140.656 48.4633 142.821C48.4633 145.006 47.8543 146.881 46.6363 148.447C45.4376 149.994 43.7943 151.163 41.7063 151.956C39.6376 152.749 37.3176 153.145 34.7463 153.145ZM34.7463 151.434C35.5583 151.434 36.1576 151.067 36.5443 150.332C36.873 149.771 37.0953 148.776 37.2113 147.345C37.2693 146.591 37.2983 145.083 37.2983 142.821C37.2983 140.54 37.25 138.925 37.1533 137.978C37.0953 136.818 36.8826 135.938 36.5153 135.339C36.1286 134.604 35.539 134.237 34.7463 134.237C33.9343 134.237 33.3253 134.604 32.9193 135.339C32.5906 135.919 32.378 136.799 32.2813 137.978C32.204 138.983 32.1653 140.598 32.1653 142.821C32.1653 145.334 32.1943 146.842 32.2523 147.345C32.3296 148.679 32.5423 149.675 32.8903 150.332C33.2963 151.067 33.915 151.434 34.7463 151.434ZM49.8911 132.7H65.1451C67.9098 132.7 70.2974 133.686 72.3081 135.658C74.2994 137.649 75.2951 140.037 75.2951 142.821C75.2951 145.644 74.2994 148.051 72.3081 150.042C70.3168 152.014 67.9291 153 65.1451 153H49.8911V132.7ZM61.7811 151.318C62.8831 151.318 63.6758 150.96 64.1591 150.245C64.6231 149.549 64.9131 148.563 65.0291 147.287C65.1258 146.456 65.1741 144.967 65.1741 142.821C65.1741 141.158 65.1161 139.573 65.0001 138.065C64.8841 136.924 64.5941 136.054 64.1301 135.455C63.6468 134.74 62.8638 134.382 61.7811 134.382H60.0411V151.318H61.7811ZM76.7104 132.7H97.7934V134.411H86.9184V141.922H92.2544V143.662H86.9184V151.26H97.7934V153H76.7104V132.7ZM108.374 153.145C106.054 153.145 104.198 152.971 102.806 152.623C101.414 152.256 100.37 151.627 99.6744 150.738C98.9784 149.829 98.6304 148.553 98.6304 146.91V145.315H100.341V146.91C100.341 149.539 101.463 150.854 103.705 150.854C104.711 150.854 105.513 150.545 106.112 149.926C106.731 149.288 107.04 148.283 107.04 146.91V132.7H118.118V146.91C118.118 149.017 117.364 150.583 115.856 151.608C114.368 152.633 111.874 153.145 108.374 153.145ZM135.041 139.979C137.342 140.598 139.062 141.419 140.203 142.444C141.344 143.449 141.914 144.764 141.914 146.388C141.914 147.683 141.508 148.843 140.696 149.868C139.884 150.893 138.685 151.695 137.1 152.275C135.534 152.855 133.63 153.145 131.387 153.145C128.738 153.145 126.399 152.807 124.369 152.13C122.358 151.434 120.783 150.593 119.642 149.607L120.599 148.302C121.604 149.095 122.871 149.771 124.398 150.332C125.925 150.893 127.569 151.173 129.328 151.173C130.469 151.173 131.329 151.009 131.909 150.68C132.508 150.351 132.808 149.887 132.808 149.288C132.808 148.244 131.774 147.432 129.705 146.852L125.935 145.75C123.886 145.131 122.3 144.271 121.179 143.169C120.077 142.067 119.526 140.762 119.526 139.254C119.526 137.997 119.922 136.857 120.715 135.832C121.508 134.807 122.658 134.005 124.166 133.425C125.693 132.826 127.52 132.526 129.647 132.526C131.677 132.526 133.543 132.758 135.244 133.222C136.965 133.686 138.366 134.247 139.449 134.904L138.492 136.238C137.583 135.716 136.491 135.271 135.215 134.904C133.958 134.537 132.634 134.353 131.242 134.353C130.024 134.353 129.086 134.546 128.429 134.933C127.791 135.3 127.472 135.813 127.472 136.47C127.472 136.973 127.714 137.417 128.197 137.804C128.68 138.171 129.599 138.539 130.952 138.906L135.041 139.979Z" fill="white"/>
<path d="M71.5488 100C71.0804 100 70.612 99.8469 70.1882 99.5918L65.9058 96.6835C65.2589 96.2754 65.5712 96.1223 65.7942 96.0458C66.6418 95.7141 66.8203 95.6376 67.7347 95.0253C67.824 94.9743 67.9578 94.9998 68.047 95.0508L71.348 97.2958C71.4596 97.3723 71.638 97.3723 71.7495 97.2958L84.6415 88.7751C84.753 88.6986 84.8422 88.5455 84.8422 88.3669V71.351C84.8422 71.1724 84.7753 71.0193 84.6415 70.9428L71.7495 62.4476C71.638 62.371 71.4819 62.371 71.348 62.4476L58.4561 70.9428C58.3223 71.0193 58.2554 71.1979 58.2554 71.351V88.3669C58.2554 88.52 58.3446 88.673 58.4561 88.7496L61.9802 91.0711C63.8984 92.1681 65.0805 90.867 65.0805 89.5915V72.7796C65.0805 72.55 65.2366 72.3459 65.4597 72.3459H67.0879C67.2886 72.3459 67.4671 72.5245 67.4671 72.7796V89.5915C67.4671 92.5252 66.0842 94.1835 63.653 94.1835C62.917 94.1835 62.3148 94.1835 60.6865 93.2651L57.2963 91.0456C56.471 90.4843 55.9357 89.4639 55.9357 88.3669V71.351C55.9357 70.254 56.4487 69.208 57.2963 68.6723L70.1882 60.1516C71.0135 59.6158 72.0841 59.6158 72.887 60.1516L85.779 68.6723C86.6042 69.2336 87.1396 70.254 87.1396 71.351V88.3669C87.1396 89.4639 86.6266 90.5098 85.779 91.0456L72.887 99.5663C72.5079 99.8469 72.0395 100 71.5488 100ZM81.9649 83.2137C81.9649 80.0248 80.0914 79.1829 76.1212 78.5706C72.1064 77.9584 71.7049 77.6522 71.7049 76.5808C71.7049 75.6879 72.0395 74.5144 75.006 74.5144C77.6602 74.5144 78.6416 75.1777 79.0431 77.2185C79.0877 77.4226 79.2215 77.5502 79.3999 77.5502H81.0728C81.1843 77.5502 81.2735 77.4992 81.3404 77.4226C81.4073 77.3206 81.4519 77.2185 81.4296 77.091C81.162 73.5704 79.1323 71.9377 75.006 71.9377C71.3257 71.9377 69.1399 73.7235 69.1399 76.6828C69.1399 79.9227 71.3257 80.7901 74.8498 81.1983C79.0654 81.683 79.3999 82.3718 79.3999 83.3157C79.3999 84.9739 78.2401 85.6627 75.519 85.6627C72.1064 85.6627 71.348 84.6933 71.1027 82.7545C71.0804 82.5504 70.9243 82.3973 70.7235 82.3973H69.0507C68.85 82.3973 68.6715 82.5759 68.6715 82.831C68.6715 85.3056 69.8536 88.2649 75.4967 88.2649C79.623 88.2649 81.9649 86.4281 81.9649 83.2137ZM94.1208 70.4326C94.1208 71.9888 93.0056 73.2643 91.645 73.2643C90.2845 73.2643 89.1692 71.9888 89.1692 70.4326C89.1692 68.8254 90.3291 67.6008 91.645 67.6008C92.9833 67.5753 94.1208 68.8254 94.1208 70.4326ZM93.7193 70.4326C93.7193 69.106 92.7826 68.06 91.6227 68.06C90.4852 68.06 89.5484 69.106 89.5484 70.4326C89.5484 71.7592 90.4852 72.8306 91.6227 72.8306C92.7826 72.8051 93.7193 71.7336 93.7193 70.4326ZM92.7156 72.0143H92.1357C92.1134 71.8612 92.0242 71.0448 92.0242 71.0193C91.9796 70.8408 91.935 70.7387 91.7343 70.7387H91.2436V72.0143H90.7083V68.8254H91.6673C92.0019 68.8254 92.6487 68.8254 92.6487 69.6672C92.6487 70.254 92.3142 70.3816 92.1134 70.4581C92.4926 70.4836 92.5149 70.7642 92.5818 71.1724C92.6041 71.4275 92.6487 71.8612 92.7156 72.0143ZM92.0911 69.7693C92.0911 69.3356 91.8235 69.3356 91.6896 69.3356H91.2436V70.2285H91.6673C92.0242 70.2285 92.0911 69.9479 92.0911 69.7693ZM31.6239 33.4159C31.6239 32.7271 31.3117 32.1148 30.7987 31.7832L17.1261 22.7778C16.903 22.6247 16.6354 22.5482 16.3677 22.5226H16.2339C15.9662 22.5226 15.7209 22.6247 15.4755 22.7778L1.82526 31.7832C1.31226 32.1148 1 32.7526 1 33.4159L1.0223 57.6515C1.0223 57.9831 1.17844 58.2893 1.42378 58.4678C1.66913 58.6464 1.98139 58.6464 2.24905 58.4678L10.3678 53.136C10.8808 52.7789 11.1931 52.1666 11.1931 51.5033V40.1764C11.1931 39.5131 11.5054 38.8753 12.0184 38.5436L15.4755 36.2731C15.7432 36.0946 16.0109 36.018 16.3008 36.018C16.5908 36.018 16.8807 36.0946 17.1261 36.2731L20.5833 38.5436C21.0963 38.8753 21.4085 39.5131 21.4085 40.1764V51.5033C21.4085 52.1666 21.7208 52.8044 22.2338 53.136L30.3526 58.4678C30.5979 58.6464 30.9325 58.6464 31.1778 58.4678C31.4232 58.3148 31.5793 57.9831 31.5793 57.6515L31.6239 33.4159ZM106.388 6.96084V51.9625C106.388 52.6258 106.076 53.2636 105.563 53.5952L91.8904 62.6262C91.3774 62.9578 90.7529 62.9578 90.2399 62.6262L76.5673 53.5952C76.0543 53.2636 75.742 52.6258 75.742 51.9625V33.9006C75.742 33.2373 76.0543 32.5995 76.5673 32.2679L90.2399 23.237C90.7529 22.9053 91.3774 22.9053 91.8904 23.237L95.303 25.4819C95.6821 25.737 96.1728 25.4054 96.1728 24.9207V0.940208C96.1728 0.225895 96.842 -0.233305 97.3996 0.123851L105.541 5.32813C106.054 5.63426 106.388 6.27204 106.388 6.96084ZM96.1282 39.8447C96.1282 39.6661 96.039 39.5131 95.9275 39.4365L91.2436 36.3242C91.1097 36.2476 90.9536 36.2476 90.8198 36.3242L86.1359 39.4365C86.002 39.5131 85.9351 39.6661 85.9351 39.8447V46.0439C85.9351 46.2225 86.0243 46.3756 86.1359 46.4521L90.8198 49.5389C90.9536 49.6155 91.1097 49.6155 91.2213 49.5389L95.9052 46.4521C96.039 46.3756 96.1059 46.2225 96.1059 46.0439V39.8447H96.1282ZM142.923 39.6661C143.436 39.3345 143.748 38.6967 143.748 38.0334V33.671C143.748 33.0077 143.436 32.3699 142.923 32.0383L129.339 23.0073C128.826 22.6757 128.202 22.6757 127.689 23.0073L114.016 32.0383C113.503 32.3699 113.191 33.0077 113.191 33.671V51.7329C113.191 52.4217 113.503 53.034 114.016 53.3656L127.6 62.218C128.09 62.5496 128.715 62.5496 129.228 62.218L137.436 56.9882C137.994 56.631 137.994 55.7126 137.436 55.3555L123.674 46.3245C123.406 46.146 123.25 45.8398 123.25 45.5082V39.8447C123.25 39.5131 123.406 39.2069 123.674 39.0284L127.957 36.1966C128.202 36.018 128.537 36.018 128.782 36.1966L133.064 39.0284C133.31 39.2069 133.488 39.5131 133.488 39.8447V44.2836C133.488 44.998 134.18 45.4572 134.737 45.1L142.923 39.6661ZM125.682 40.559C125.592 40.6356 125.525 40.7376 125.525 40.8652V44.3347C125.525 44.4622 125.592 44.5898 125.682 44.6408L128.313 46.3756C128.403 46.4521 128.536 46.4521 128.626 46.3756L131.258 44.6408C131.347 44.5643 131.414 44.4622 131.414 44.3347V40.8652C131.414 40.7376 131.347 40.61 131.258 40.559L128.626 38.8243C128.536 38.7477 128.403 38.7477 128.313 38.8243L125.682 40.559ZM68.9838 51.6564V33.6965C68.9838 33.0332 68.6269 32.3955 68.1139 32.0638L54.4859 23.0839C54.0175 22.7777 53.3707 22.7267 52.8354 23.0839L39.2074 32.0638C38.6944 32.3955 38.3375 33.0077 38.3375 33.6965V51.6564C38.3375 52.3707 38.7613 52.9829 39.2297 53.2891L52.88 62.269C53.4153 62.6262 54.0398 62.6007 54.5305 62.269L68.1362 53.2891C68.5377 53.034 68.8276 52.6003 68.9392 52.0901C68.9615 51.9625 68.9838 51.8094 68.9838 51.6564ZM52.4116 19.7929L52.2332 19.9205H52.4785L52.4116 19.7929ZM69.4076 53.0085L69.3183 52.8299V53.0595L69.4076 53.0085Z" fill="white"/>
</svg>
