<svg width="128" height="158" viewBox="0 0 128 158" fill="none" xmlns="http://www.w3.org/2000/svg">
<path d="M8.812 132.7H28.213C29.1603 132.7 30.0303 132.942 30.823 133.425C31.635 133.889 32.273 134.527 32.737 135.339C33.2203 136.132 33.462 137.002 33.462 137.949C33.462 139.206 33.0753 140.346 32.302 141.371C31.5287 142.396 30.5523 143.053 29.373 143.343C30.417 143.633 31.2677 144.184 31.925 144.996C32.6017 145.808 32.94 146.726 32.94 147.751V153H23.225V146.707C23.225 146.088 23.109 145.605 22.877 145.257C22.6063 144.851 22.297 144.551 21.949 144.358C21.5623 144.145 21.1273 143.991 20.644 143.894C20.1413 143.797 19.6677 143.739 19.223 143.72L18.44 143.691V153H8.812V132.7ZM19.455 142.009C20.151 142.009 20.789 141.845 21.369 141.516C21.9683 141.168 22.4323 140.704 22.761 140.124C23.109 139.525 23.283 138.887 23.283 138.21C23.283 137.514 23.109 136.876 22.761 136.296C22.4323 135.697 21.9683 135.223 21.369 134.875C20.789 134.527 20.151 134.353 19.455 134.353H18.44V142.038L19.455 142.009ZM34.9233 132.7H56.0063V134.411H45.1313V141.922H50.4673V143.662H45.1313V151.26H56.0063V153H34.9233V132.7ZM64.8323 132.7H73.3003L82.2903 153H71.3283L68.2833 146.272H61.9033L59.2933 153H57.1763L64.8323 132.7ZM67.4713 144.503L64.8323 138.616L62.5413 144.503H67.4713ZM95.8492 151.115C97.2992 151.115 98.4495 150.525 99.3002 149.346C100.151 148.167 100.702 146.736 100.953 145.054H102.751C102.48 147.142 101.794 148.921 100.692 150.39C100.073 151.202 99.3678 151.811 98.5752 152.217C97.8018 152.604 96.9415 152.855 95.9942 152.971C95.0662 153.087 93.8482 153.145 92.3402 153.145C90.2135 153.145 88.4832 152.942 87.1492 152.536C85.8345 152.111 84.7035 151.424 83.7562 150.477C81.9002 148.621 80.9722 146.069 80.9722 142.821C80.9722 139.399 81.8035 136.857 83.4662 135.194C84.5488 134.111 85.7572 133.396 87.0912 133.048C88.4252 132.7 90.1748 132.526 92.3402 132.526C94.3315 132.526 95.9458 132.671 97.1832 132.961C98.4398 133.232 99.4645 133.821 100.257 134.73C100.914 135.484 101.427 136.393 101.794 137.456C102.161 138.519 102.374 139.573 102.432 140.617H100.779C100.702 139.747 100.489 138.858 100.141 137.949C99.8125 137.021 99.2905 136.228 98.5752 135.571C97.8598 134.894 96.9512 134.556 95.8492 134.556C94.8052 134.556 93.9642 135.01 93.3262 135.919C92.7655 136.634 92.3402 137.688 92.0502 139.08C91.8375 140.143 91.7312 141.39 91.7312 142.821C91.7312 145.083 92.0018 146.91 92.5432 148.302C93.2392 150.177 94.3412 151.115 95.8492 151.115ZM109.523 134.411H101.896V132.7H127.329V134.411H119.673V153H109.523V134.411Z" fill="white"/>
<path d="M97.1152 32.4062C95.8612 32.0044 94.6072 31.625 93.3532 31.2679C93.5622 30.442 93.748 29.6162 93.9338 28.7903C96.7901 15.4875 94.9091 4.79606 88.5694 1.26946C82.462 -2.10089 72.4997 1.40338 62.4213 9.84043C61.4227 10.6663 60.4474 11.5368 59.5185 12.4073C58.8915 11.8269 58.2413 11.2466 57.591 10.6886C47.0249 1.67123 36.4356 -2.12321 30.096 1.4257C24.0118 4.81838 22.2004 14.8848 24.7549 27.4734C25.0103 28.7234 25.289 29.951 25.6141 31.2009C24.1279 31.6027 22.6649 32.0491 21.2948 32.5178C8.8941 36.647 0 43.1645 0 49.9053C0 56.8692 9.47466 63.8554 22.363 68.0962C23.408 68.4311 24.453 68.7659 25.5212 69.056C25.1729 70.3952 24.871 71.7121 24.5923 73.0737C22.154 85.4614 24.0582 95.2823 30.1424 98.6527C36.4124 102.135 46.9553 98.5634 57.2195 89.9254C58.0323 89.2335 58.845 88.5193 59.6578 87.7604C60.6796 88.7201 61.7478 89.6353 62.816 90.5281C72.7551 98.7419 82.5781 102.068 88.6391 98.6973C94.9091 95.2153 96.9527 84.6579 94.3053 71.8014C94.0963 70.8193 93.8641 69.8149 93.6087 68.7882C94.3518 68.5873 95.0717 68.3641 95.7916 68.1409C109.191 63.8777 118.898 56.9808 118.898 49.9053C118.898 43.1422 109.748 36.5801 97.1152 32.4062ZM65.6956 13.4563C74.3342 6.22456 82.3923 3.38988 86.0615 5.42103C89.986 7.58609 91.4954 16.3356 89.0339 27.8305C88.8713 28.5894 88.7088 29.326 88.4998 30.0626C83.3445 28.9466 78.1195 28.143 72.8712 27.6966C69.8524 23.5451 66.5548 19.5721 62.9786 15.8446C63.8843 15.0187 64.7667 14.2375 65.6956 13.4563ZM38.8275 61.4895C40.0118 63.4313 41.2194 65.3732 42.4966 67.2704C38.874 66.891 35.2745 66.3329 31.7215 65.5964C32.7433 62.3823 34.0205 59.0566 35.5067 55.6639C36.575 57.6281 37.6664 59.5699 38.8275 61.4895ZM31.7912 34.6382C35.1352 33.924 38.6882 33.3436 42.3805 32.8972C41.1497 34.7498 39.9422 36.647 38.8043 38.5666C37.6664 40.4638 36.5517 42.4057 35.5067 44.3698C34.0437 41.0441 32.813 37.7854 31.7912 34.6382ZM38.1541 50.0169C39.6867 46.9367 41.3587 43.9234 43.1236 40.9548C44.8885 37.9862 46.7927 35.1069 48.7898 32.2723C52.2732 32.0267 55.8262 31.8928 59.4488 31.8928C63.0715 31.8928 66.6477 32.0267 70.1078 32.2723C72.0817 35.0846 73.9627 37.9639 75.7508 40.9102C77.5389 43.8565 79.2109 46.8697 80.79 49.9276C79.2341 53.0078 77.5621 56.0433 75.774 59.0342C74.0091 62.0028 72.1281 64.8821 70.1543 67.7391C66.6941 67.9846 63.0947 68.0962 59.4488 68.0962C55.8029 68.0962 52.2732 67.9846 48.8595 67.7838C46.8392 64.9491 44.9349 62.0475 43.1468 59.0789C41.3587 56.1103 39.71 53.0971 38.1541 50.0169ZM80.0933 61.4448C81.2777 59.4806 82.3923 57.4941 83.4838 55.4853C84.97 58.7218 86.2705 62.0028 87.4083 65.3732C83.8089 66.1544 80.163 66.757 76.4939 67.1588C77.7479 65.2839 78.9322 63.3644 80.0933 61.4448ZM83.4373 44.3698C82.3459 42.4057 81.2312 40.4415 80.0701 38.5219C78.9322 36.6247 77.7479 34.7498 76.5171 32.8972C80.2559 33.3436 83.8321 33.9463 87.1761 34.6829C86.1079 37.9862 84.8539 41.2004 83.4373 44.3698ZM59.4953 19.2596C61.9336 21.8041 64.2326 24.4825 66.369 27.2502C61.771 27.0493 57.1498 27.0493 52.5518 27.2502C54.8276 24.3709 57.173 21.6925 59.4953 19.2596ZM32.5575 5.57727C36.4588 3.38988 45.1207 6.51472 54.247 14.2822C54.8276 14.7732 55.4082 15.3089 56.0119 15.8446C52.4125 19.5721 49.0917 23.5451 46.0496 27.6966C40.8014 28.143 35.5996 28.9242 30.4443 30.0179C30.1424 28.8796 29.887 27.7189 29.6315 26.5583C27.4486 15.7553 28.8884 7.60841 32.5575 5.57727ZM26.8681 64.4134C25.8927 64.1456 24.9406 63.8554 23.9885 63.5429C19.0422 62.0475 13.4224 59.6815 9.35854 56.579C7.0131 55.0166 5.43399 52.606 4.99277 49.9053C4.99277 45.8207 12.331 40.5977 22.9203 37.0488C24.244 36.6024 25.5909 36.2006 26.9377 35.8212C28.5169 40.6647 30.4211 45.4189 32.6272 50.0169C30.3979 54.6818 28.4704 59.503 26.8681 64.4134ZM53.9452 86.2872C50.1135 89.6576 45.6781 92.336 40.8478 94.1663C38.2702 95.3493 35.2977 95.4609 32.6504 94.4564C28.9581 92.403 27.4254 84.5239 29.5154 73.9218C29.7709 72.6719 30.0495 71.422 30.3746 70.1944C35.5764 71.2657 40.8246 72.0023 46.1425 72.3817C49.2078 76.5556 52.575 80.5509 56.1745 84.3007C55.4314 84.9927 54.6883 85.6623 53.9452 86.2872ZM59.6346 80.8634C57.2659 78.4082 54.8973 75.6851 52.5983 72.7612C54.8276 72.8505 57.1266 72.8951 59.4488 72.8951C61.8407 72.8951 64.1861 72.8505 66.5084 72.7389C64.3719 75.5735 62.0729 78.2743 59.6346 80.8634ZM89.986 87.5595C89.777 90.2826 88.3837 92.8271 86.1543 94.5457C82.462 96.5992 74.5897 93.9208 66.0904 86.9122C65.115 86.1087 64.1397 85.2382 63.1411 84.3454C66.6941 80.5733 69.9685 76.5779 72.9409 72.3817C78.2588 71.9576 83.5535 71.1764 88.7784 70.0381C89.0107 70.9532 89.2197 71.8684 89.4054 72.7612C90.5433 77.5823 90.7291 82.6044 89.986 87.5595ZM94.2124 63.5652C93.5622 63.7661 92.912 63.967 92.2386 64.1456C90.613 59.2798 88.6159 54.5255 86.3169 49.9053C88.5462 45.3519 90.4272 40.6647 92.0063 35.8658C93.2139 36.2006 94.375 36.5578 95.4897 36.9149C106.311 40.4861 113.905 45.7983 113.905 49.8606C113.905 54.2354 105.8 59.8824 94.2124 63.5652ZM59.4488 60.2172C65.324 60.2172 70.0846 55.6416 70.0846 49.9945C70.0846 44.3475 65.324 39.7719 59.4488 39.7719C53.5736 39.7719 48.8131 44.3475 48.8131 49.9945C48.8131 55.6416 53.5736 60.2172 59.4488 60.2172Z" fill="white"/>
</svg>
