<svg width="124" height="158" viewBox="0 0 124 158" fill="none" xmlns="http://www.w3.org/2000/svg">
<path d="M16.124 139.979C18.4247 140.598 20.1453 141.419 21.286 142.444C22.4267 143.449 22.997 144.764 22.997 146.388C22.997 147.683 22.591 148.843 21.779 149.868C20.967 150.893 19.7683 151.695 18.183 152.275C16.617 152.855 14.7127 153.145 12.47 153.145C9.82133 153.145 7.482 152.807 5.452 152.13C3.44133 151.434 1.86567 150.593 0.725 149.607L1.682 148.302C2.68733 149.095 3.95367 149.771 5.481 150.332C7.00833 150.893 8.65167 151.173 10.411 151.173C11.5517 151.173 12.412 151.009 12.992 150.68C13.5913 150.351 13.891 149.887 13.891 149.288C13.891 148.244 12.8567 147.432 10.788 146.852L7.018 145.75C4.96867 145.131 3.38333 144.271 2.262 143.169C1.16 142.067 0.609 140.762 0.609 139.254C0.609 137.997 1.00533 136.857 1.798 135.832C2.59067 134.807 3.741 134.005 5.249 133.425C6.77633 132.826 8.60333 132.526 10.73 132.526C12.76 132.526 14.6257 132.758 16.327 133.222C18.0477 133.686 19.4493 134.247 20.532 134.904L19.575 136.238C18.6663 135.716 17.574 135.271 16.298 134.904C15.0413 134.537 13.717 134.353 12.325 134.353C11.107 134.353 10.1693 134.546 9.512 134.933C8.874 135.3 8.555 135.813 8.555 136.47C8.555 136.973 8.79667 137.417 9.28 137.804C9.76333 138.171 10.6817 138.539 12.035 138.906L16.124 139.979ZM21.8991 132.7H31.7591L38.5451 148.041L44.2581 132.7H48.6081L55.2781 147.693L60.8461 132.7H63.0791L55.4231 153H46.6361L42.4311 143.488L38.8351 153H30.8891L21.8991 132.7ZM64.2212 132.7H73.6752V153H64.2212V132.7ZM75.3227 132.7H96.3767V134.411H85.5017V141.922H90.8377V143.662H85.5017V153H75.3227V132.7ZM105.46 134.411H97.8326V132.7H123.266V134.411H115.61V153H105.46V134.411Z" fill="white"/>
<path d="M109.998 27.7003C109.998 26.6936 109.981 25.6914 109.955 24.6825C109.929 22.4822 109.742 20.287 109.396 18.1157C109.035 15.9418 108.362 13.8355 107.4 11.8658C105.445 7.90999 102.325 4.69438 98.4872 2.68074C96.5771 1.68721 94.5336 0.993555 92.4245 0.622754C90.3176 0.264213 88.1873 0.0709542 86.0521 0.0446416C85.0755 0.0178565 84.1033 0.00669628 83.1246 0H39.8732C38.8967 0 37.9245 0.0178565 36.9458 0.0446416C36.4153 0.0602663 35.8826 0.0781231 35.35 0.104908C33.7486 0.171199 32.1531 0.344175 30.5734 0.622754C28.9997 0.905847 27.46 1.36232 25.9808 1.98433C25.4814 2.2001 24.9899 2.43224 24.5063 2.68074C23.0792 3.43371 21.7428 4.35666 20.5243 5.43068C20.1173 5.79005 19.7253 6.16281 19.3486 6.54673C17.832 8.10607 16.5641 9.90276 15.5918 11.8703C14.6289 13.8398 13.956 15.9462 13.5955 18.1201C13.2527 20.2903 13.0688 22.4839 13.0455 24.6825C13.0173 25.6892 13.0065 26.6914 13 27.7003V72.3042C13 73.3109 13.0173 74.3131 13.0455 75.3197C13.0713 77.52 13.258 79.7152 13.6041 81.8866C13.9642 84.0606 14.6371 86.1671 15.6005 88.1364C17.5559 92.0891 20.6728 95.3038 24.5063 97.3215C26.4169 98.3133 28.4603 99.0062 30.569 99.3772C32.6759 99.7358 34.8062 99.929 36.9414 99.9554C37.9158 99.9821 38.8902 99.9933 39.8689 100H83.1289C84.1055 100 85.0777 99.9821 86.0564 99.9554C88.1923 99.9278 90.3232 99.7346 92.431 99.3772C94.5396 99.0059 96.5829 98.313 98.4937 97.3215C102.328 95.3044 105.446 92.0885 107.4 88.1342C108.363 86.1649 109.036 84.0584 109.396 81.8843C109.744 79.7132 109.931 77.5179 109.957 75.3175C109.983 74.3131 109.994 73.3086 110 72.302V31.2828C109.998 30.0886 109.998 28.8944 109.998 27.7003ZM94.8669 81.4937C90.5363 72.8042 82.475 74.9604 78.3437 77.1478C77.9712 77.371 77.5902 77.5942 77.2069 77.8175L77.116 77.8733C68.5631 82.5607 57.0807 82.9044 45.5354 77.7884C36.1372 73.5876 28.1902 66.5563 22.7372 57.617C25.3902 59.6404 28.2312 61.3878 31.2186 62.8334C43.4221 68.7261 55.6862 68.2998 64.3473 62.8334C52.0053 53.0457 41.6986 40.2893 33.7975 29.9725C32.2923 28.1623 30.9323 26.2289 29.7311 24.1914C39.1933 33.1198 54.1337 44.3294 59.4993 47.432C48.1164 35.0461 38.0869 19.7674 38.5567 20.2585C56.4831 38.8786 73.0236 49.4074 73.0236 49.4074C73.6472 49.76 74.1062 50.0435 74.4808 50.3002C74.8273 49.389 75.128 48.46 75.3816 47.5168C78.2441 36.7291 75.0221 24.3968 67.736 14.214C84.3631 24.4995 94.1913 44.0504 90.1639 60.5857C90.0686 60.9719 89.9582 61.3446 89.8521 61.7218C98.1928 72.302 95.9235 83.6343 94.8604 81.4959L94.8669 81.4937Z" fill="white"/>
</svg>
