<svg width="173" height="158" viewBox="0 0 173 158" fill="none" xmlns="http://www.w3.org/2000/svg">
<path d="M58.4453 44.3333C62.1859 27.4444 71.5374 19 86.4999 19C108.944 19 111.749 38 122.971 41.1667C130.452 43.2778 136.998 40.1111 142.609 31.6667C138.869 48.5556 129.517 57 114.555 57C92.1108 57 89.3054 38 78.0835 34.8333C70.6023 32.7222 64.0562 35.8889 58.4453 44.3333ZM30.3906 82.3333C34.1312 65.4444 43.4828 57 58.4453 57C80.889 57 83.6944 76 94.9163 79.1667C102.398 81.2778 108.944 78.1111 114.555 69.6667C110.814 86.5556 101.462 95 86.4999 95C64.0562 95 61.2507 76 50.0289 72.8333C42.5476 70.7222 36.0016 73.8889 30.3906 82.3333Z" fill="white"/>
<path d="M8.236 134.411H0.609V132.7H26.042V134.411H18.386V153H8.236V134.411ZM28.8518 132.7H37.3198L46.3098 153H35.3478L32.3028 146.272H25.9228L23.3128 153H21.1958L28.8518 132.7ZM31.4908 144.503L28.8518 138.616L26.5608 144.503H31.4908ZM47.4556 132.7H56.9096V153H47.4556V132.7ZM58.5571 132.7H68.7361V151.26H79.7561V153H58.5571V132.7ZM73.1022 132.7H82.9622L89.7482 148.041L95.4612 132.7H99.8112L106.481 147.693L112.049 132.7H114.282L106.626 153H97.8392L93.6342 143.488L90.0382 153H82.0922L73.1022 132.7ZM115.424 132.7H124.878V153H115.424V132.7ZM126.526 132.7H135.052L143.52 142.85V132.7H145.26V153H138.445L128.295 139.486V153H126.526V132.7ZM146.888 132.7H162.142C164.907 132.7 167.295 133.686 169.305 135.658C171.297 137.649 172.292 140.037 172.292 142.821C172.292 145.644 171.297 148.051 169.305 150.042C167.314 152.014 164.926 153 162.142 153H146.888V132.7ZM158.778 151.318C159.88 151.318 160.673 150.96 161.156 150.245C161.62 149.549 161.91 148.563 162.026 147.287C162.123 146.456 162.171 144.967 162.171 142.821C162.171 141.158 162.113 139.573 161.997 138.065C161.881 136.924 161.591 136.054 161.127 135.455C160.644 134.74 159.861 134.382 158.778 134.382H157.038V151.318H158.778Z" fill="white"/>
</svg>
