<svg width="232" height="158" viewBox="0 0 232 158" fill="none" xmlns="http://www.w3.org/2000/svg">
<path d="M8.236 134.411H0.609V132.7H26.042V134.411H18.386V153H8.236V134.411ZM33.5514 143.691L27.2584 132.7H38.6264L42.8024 140.994L46.8624 132.7H49.0954L43.7014 143.691V153H33.5514V143.691ZM50.3442 132.7H68.7592C70.4606 132.7 71.8332 133.193 72.8772 134.179C73.9212 135.146 74.4432 136.46 74.4432 138.123C74.4432 139.109 74.2016 140.027 73.7182 140.878C73.2349 141.729 72.5679 142.405 71.7172 142.908C70.8666 143.411 69.8999 143.662 68.8172 143.662L59.9722 143.691V153H50.3442V132.7ZM60.9872 142.009C61.6832 142.009 62.3212 141.845 62.9012 141.516C63.5006 141.168 63.9646 140.704 64.2932 140.124C64.6412 139.525 64.8152 138.887 64.8152 138.21C64.8152 137.514 64.6412 136.876 64.2932 136.296C63.9646 135.697 63.5006 135.223 62.9012 134.875C62.3212 134.527 61.6832 134.353 60.9872 134.353H59.9722V142.009H60.9872ZM75.8608 132.7H96.9438V134.411H86.0688V141.922H91.4048V143.662H86.0688V151.26H96.9438V153H75.8608V132.7ZM112.866 139.979C115.167 140.598 116.888 141.419 118.028 142.444C119.169 143.449 119.739 144.764 119.739 146.388C119.739 147.683 119.333 148.843 118.521 149.868C117.709 150.893 116.511 151.695 114.925 152.275C113.359 152.855 111.455 153.145 109.212 153.145C106.564 153.145 104.224 152.807 102.194 152.13C100.184 151.434 98.6079 150.593 97.4672 149.607L98.4242 148.302C99.4295 149.095 100.696 149.771 102.223 150.332C103.751 150.893 105.394 151.173 107.153 151.173C108.294 151.173 109.154 151.009 109.734 150.68C110.334 150.351 110.633 149.887 110.633 149.288C110.633 148.244 109.599 147.432 107.53 146.852L103.76 145.75C101.711 145.131 100.126 144.271 99.0042 143.169C97.9022 142.067 97.3512 140.762 97.3512 139.254C97.3512 137.997 97.7475 136.857 98.5402 135.832C99.3329 134.807 100.483 134.005 101.991 133.425C103.519 132.826 105.346 132.526 107.472 132.526C109.502 132.526 111.368 132.758 113.069 133.222C114.79 133.686 116.192 134.247 117.274 134.904L116.317 136.238C115.409 135.716 114.316 135.271 113.04 134.904C111.784 134.537 110.459 134.353 109.067 134.353C107.849 134.353 106.912 134.546 106.254 134.933C105.616 135.3 105.297 135.813 105.297 136.47C105.297 136.973 105.539 137.417 106.022 137.804C106.506 138.171 107.424 138.539 108.777 138.906L112.866 139.979ZM135.88 151.115C137.33 151.115 138.481 150.525 139.331 149.346C140.182 148.167 140.733 146.736 140.984 145.054H142.782C142.512 147.142 141.825 148.921 140.723 150.39C140.105 151.202 139.399 151.811 138.606 152.217C137.833 152.604 136.973 152.855 136.025 152.971C135.097 153.087 133.879 153.145 132.371 153.145C130.245 153.145 128.514 152.942 127.18 152.536C125.866 152.111 124.735 151.424 123.787 150.477C121.931 148.621 121.003 146.069 121.003 142.821C121.003 139.399 121.835 136.857 123.497 135.194C124.58 134.111 125.788 133.396 127.122 133.048C128.456 132.7 130.206 132.526 132.371 132.526C134.363 132.526 135.977 132.671 137.214 132.961C138.471 133.232 139.496 133.821 140.288 134.73C140.946 135.484 141.458 136.393 141.825 137.456C142.193 138.519 142.405 139.573 142.463 140.617H140.81C140.733 139.747 140.52 138.858 140.172 137.949C139.844 137.021 139.322 136.228 138.606 135.571C137.891 134.894 136.982 134.556 135.88 134.556C134.836 134.556 133.995 135.01 133.357 135.919C132.797 136.634 132.371 137.688 132.081 139.08C131.869 140.143 131.762 141.39 131.762 142.821C131.762 145.083 132.033 146.91 132.574 148.302C133.27 150.177 134.372 151.115 135.88 151.115ZM144.198 132.7H163.599C164.546 132.7 165.416 132.942 166.209 133.425C167.021 133.889 167.659 134.527 168.123 135.339C168.606 136.132 168.848 137.002 168.848 137.949C168.848 139.206 168.461 140.346 167.688 141.371C166.914 142.396 165.938 143.053 164.759 143.343C165.803 143.633 166.653 144.184 167.311 144.996C167.987 145.808 168.326 146.726 168.326 147.751V153H158.611V146.707C158.611 146.088 158.495 145.605 158.263 145.257C157.992 144.851 157.683 144.551 157.335 144.358C156.948 144.145 156.513 143.991 156.03 143.894C155.527 143.797 155.053 143.739 154.609 143.72L153.826 143.691V153H144.198V132.7ZM154.841 142.009C155.537 142.009 156.175 141.845 156.755 141.516C157.354 141.168 157.818 140.704 158.147 140.124C158.495 139.525 158.669 138.887 158.669 138.21C158.669 137.514 158.495 136.876 158.147 136.296C157.818 135.697 157.354 135.223 156.755 134.875C156.175 134.527 155.537 134.353 154.841 134.353H153.826V142.038L154.841 142.009ZM170.309 132.7H179.763V153H170.309V132.7ZM181.411 132.7H199.826C201.527 132.7 202.9 133.193 203.944 134.179C204.988 135.146 205.51 136.46 205.51 138.123C205.51 139.109 205.268 140.027 204.785 140.878C204.301 141.729 203.634 142.405 202.784 142.908C201.933 143.411 200.966 143.662 199.884 143.662L191.039 143.691V153H181.411V132.7ZM192.054 142.009C192.75 142.009 193.388 141.845 193.968 141.516C194.567 141.168 195.031 140.704 195.36 140.124C195.708 139.525 195.882 138.887 195.882 138.21C195.882 137.514 195.708 136.876 195.36 136.296C195.031 135.697 194.567 135.223 193.968 134.875C193.388 134.527 192.75 134.353 192.054 134.353H191.039V142.009H192.054ZM213.53 134.411H205.903V132.7H231.336V134.411H223.68V153H213.53V134.411Z" fill="white"/>
<path d="M156.006 0H76.8007C70.8378 0 66 4.79911 66 10.7143V89.2857C66 95.2009 70.8378 100 76.8007 100H156.006C161.969 100 166.806 95.2009 166.806 89.2857V10.7143C166.806 4.79911 161.969 0 156.006 0ZM122 53.5714H109V92.1652H99V53.5714H86.5V45.3795H122V53.5714ZM143.27 92.1652C134.472 92.1652 128.779 88.0134 126.011 82.567L133.729 78.1473C135.754 81.4286 138.41 83.8616 143.067 83.8616C146.983 83.8616 149.503 81.9196 149.503 79.2188C149.503 76.0045 146.938 74.8661 142.595 72.9688L140.232 71.9643C133.392 69.0848 128.869 65.4464 128.869 57.7902C128.869 50.7366 134.292 45.3795 142.73 45.3795C148.76 45.3795 153.081 47.4554 156.186 52.9018L148.805 57.5893C147.185 54.7098 145.43 53.5714 142.707 53.5714C139.94 53.5714 138.185 55.3125 138.185 57.5893C138.185 60.4018 139.94 61.5402 144.012 63.3036L146.375 64.308C154.431 67.7232 158.953 71.2277 158.953 79.0848C158.953 87.5223 152.248 92.1652 143.27 92.1652Z" fill="white"/>
</svg>
