<svg width="110" height="158" viewBox="0 0 110 158" fill="none" xmlns="http://www.w3.org/2000/svg">
<path d="M20.319 132.7H29.715L36.356 147.664L41.924 132.7H44.157L36.501 153H29.309L20.319 132.7ZM54.9964 153.145C51.4971 153.145 48.9934 152.633 47.4854 151.608C45.9968 150.583 45.2524 149.017 45.2524 146.91V132.7H56.3304V146.91C56.3304 148.283 56.6301 149.288 57.2294 149.926C57.8481 150.545 58.6601 150.854 59.6654 150.854C61.9081 150.854 63.0294 149.539 63.0294 146.91V132.7H64.7404V146.91C64.7404 148.553 64.3924 149.829 63.6964 150.738C63.0004 151.627 61.9564 152.256 60.5644 152.623C59.1724 152.971 57.3164 153.145 54.9964 153.145ZM66.3511 132.7H87.4341V134.411H76.5591V141.922H81.8951V143.662H76.5591V151.26H87.4341V153H66.3511V132.7Z" fill="white"/>
<path d="M87.6317 0H68.75L55 23.091L43.2143 0H0L55 100L110 0H87.6317ZM13.6763 8.33985H26.8862L55 59.9948L83.0893 8.33985H96.2991L55 83.4506L13.6763 8.33985Z" fill="white"/>
</svg>
