<svg width="84" height="104" viewBox="0 0 84 104" fill="none" xmlns="http://www.w3.org/2000/svg">
<path d="M18.3584 37.9893H10.9365L11.5469 35.7432H17.626L18.3584 37.9893ZM13.5244 24.5127L7.78711 41.6514C7.28255 43.0999 7.03841 44.1904 7.05469 44.9229C7.07096 45.639 7.1849 46.111 7.39648 46.3389C7.60807 46.5667 7.88477 46.7295 8.22656 46.8271C8.56836 46.9248 8.95898 47.0062 9.39844 47.0713C9.83789 47.1364 10.2855 47.2829 10.7412 47.5107V49H0.121094V47.5107C0.462891 47.3154 0.820964 47.1608 1.19531 47.0469C1.56966 46.9329 1.92773 46.8027 2.26953 46.6562C3.06706 46.2982 3.57975 45.7611 3.80762 45.0449L12.0596 20.5576L13.5244 24.5127ZM12.9141 18.0674C12.0352 17.7581 11.4411 17.4489 11.1318 17.1396C11.1644 16.7979 11.2051 16.4805 11.2539 16.1875C11.319 15.8783 11.376 15.5771 11.4248 15.2842C11.4899 14.9749 11.555 14.7227 11.6201 14.5273C14.7126 13.8763 16.5029 13.5508 16.9912 13.5508C17.333 13.8275 17.6504 14.3402 17.9434 15.0889L28.6611 44.6543C29.0192 45.6309 29.5563 46.2982 30.2725 46.6562C30.598 46.819 30.9398 46.9574 31.2979 47.0713C31.6722 47.1689 32.0628 47.3154 32.4697 47.5107V49H19.2617V47.5107C19.6361 47.3317 20.0267 47.2096 20.4336 47.1445C20.8405 47.0632 21.2148 46.9818 21.5566 46.9004C22.3053 46.7214 22.6797 46.3551 22.6797 45.8018C22.6797 45.3135 22.2891 43.9951 21.5078 41.8467C20.7266 39.6982 20.0348 37.7858 19.4326 36.1094C17.7562 31.4056 16.1123 26.7018 14.501 21.998L12.9141 18.0674Z" fill="#9C84B8"/>
<path d="M54.3877 37.3896C54.3877 32.5557 52.1416 30.1387 47.6494 30.1387C46.9333 30.1387 46.2985 30.1875 45.7451 30.2852V28.3076H47.8691C54.2493 28.3076 58.3835 29.9678 60.2715 33.2881C60.9388 34.4437 61.2725 35.7539 61.2725 37.2188C61.2725 38.6673 61.0039 39.9531 60.4668 41.0762C59.946 42.1992 59.1566 43.1758 58.0986 44.0059C55.82 45.7962 52.6462 46.6914 48.5771 46.6914H45.7451V44.8604C48.7074 44.8604 50.8639 44.3314 52.2148 43.2734C53.6634 42.1016 54.3877 40.1403 54.3877 37.3896ZM43.7188 57.1895C43.7188 58.3125 43.7594 59.0775 43.8408 59.4844C43.9385 59.875 44.1257 60.1761 44.4023 60.3877C44.679 60.583 45.0127 60.7376 45.4033 60.8516C45.7939 60.9492 46.2171 61.0469 46.6729 61.1445C47.1286 61.2259 47.568 61.3643 47.9912 61.5596V63H34.1973V61.5596C34.474 61.3643 34.7832 61.2259 35.125 61.1445C35.4831 61.0632 35.8249 60.9655 36.1504 60.8516C36.9316 60.6074 37.3711 60.1517 37.4688 59.4844C37.5664 58.8008 37.6152 58.0195 37.6152 57.1406V34.1426C37.6152 32.3359 37.4036 31.2617 36.9805 30.9199C36.6387 30.6432 36.1585 30.4316 35.54 30.2852C34.9378 30.1224 34.4902 29.9434 34.1973 29.748V28.3076H43.7188V57.1895Z" fill="#9C84B8"/>
<path d="M71.999 54.7031C71.999 53.4987 71.877 52.7256 71.6328 52.3838C71.3887 52.0257 71.1608 51.7979 70.9492 51.7002C70.7376 51.6025 70.5098 51.513 70.2656 51.4316C69.4681 51.2038 68.9066 50.9759 68.5811 50.748V49.3076H81.3984V50.748C80.959 50.9434 80.5358 51.098 80.1289 51.2119C79.7383 51.3258 79.3883 51.4723 79.0791 51.6514C78.4118 52.042 78.0781 52.7581 78.0781 53.7998V79.5078C78.0781 80.5495 78.4118 81.2656 79.0791 81.6562C79.3883 81.8353 79.7383 81.9818 80.1289 82.0957C80.5358 82.2096 80.959 82.3643 81.3984 82.5596V84H68.5811V82.5596C70.4691 82.2992 71.5596 81.4284 71.8525 79.9473C71.9502 79.459 71.999 78.8893 71.999 78.2383V54.7031ZM59.3525 78.458C59.3525 80.2321 59.6943 81.2982 60.3779 81.6562C60.6058 81.7539 60.9801 81.8841 61.501 82.0469C62.0381 82.1934 62.4613 82.3643 62.7705 82.5596V84H49.9775V82.5596C50.417 82.3643 50.832 82.2096 51.2227 82.0957C51.6133 81.9818 51.9632 81.8353 52.2725 81.6562C52.9398 81.2656 53.2734 80.5495 53.2734 79.5078V53.7998C53.2734 52.7581 52.9398 52.042 52.2725 51.6514C51.9632 51.4723 51.6133 51.3258 51.2227 51.2119C50.832 51.098 50.417 50.9434 49.9775 50.748V49.3076H62.7705V50.748C62.3962 50.9922 61.9486 51.1875 61.4277 51.334C60.9069 51.4805 60.5407 51.6107 60.3291 51.7246C60.1338 51.8223 59.9629 51.9932 59.8164 52.2373C59.5072 52.7581 59.3525 53.6615 59.3525 54.9473V78.458ZM69.9727 67.0566H61.3789V64.8105H69.9727V67.0566Z" fill="#9C84B8"/>
</svg>
