<svg width="390" height="267" viewBox="0 0 390 267" fill="none" xmlns="http://www.w3.org/2000/svg">
<rect width="390" height="267" fill="#212025"/>
<rect x="141" width="107" height="267" fill="#9C84B8"/>
<rect width="22.0169" height="20.8298" transform="matrix(0.561726 0.827323 -0.789477 0.613779 131.444 138)" fill="#F5F5F5"/>
<rect width="8.46036" height="29.0222" transform="matrix(0.72032 0.693642 -0.72032 0.693642 285.905 201)" fill="#F5F5F5"/>
<rect width="8.46036" height="29.0222" transform="matrix(0.72032 -0.693642 0.72032 0.693642 265.001 206.869)" fill="#F5F5F5"/>
<path d="M123.989 208.123L131.624 235.857L97.7262 223.519L123.989 208.123Z" fill="#F5F5F5"/>
<path d="M248 165C248 172.732 241.956 179 234.5 179C227.044 179 221 172.732 221 165C221 157.268 227.044 151 234.5 151C241.956 151 248 157.268 248 165Z" fill="#F5F5F5"/>
</svg>
