<svg width="834" height="659" viewBox="0 0 834 659" fill="none" xmlns="http://www.w3.org/2000/svg">
<rect width="834" height="659" fill="#212025"/>
<rect x="487" width="276" height="659" fill="#9C84B8"/>
<path d="M763 88.5C763 109.211 745.539 126 724 126C702.461 126 685 109.211 685 88.5C685 67.7893 702.461 51 724 51C745.539 51 763 67.7893 763 88.5Z" fill="#F5F5F5"/>
<rect width="65.3724" height="65.5707" transform="matrix(0.561726 0.827323 -0.789477 0.613779 699.767 241)" fill="#F5F5F5"/>
<path d="M486.217 380.445L566.445 371.761L519.303 459.134L486.217 380.445Z" fill="#F5F5F5"/>
<rect width="24.2682" height="83.2491" transform="matrix(0.725463 0.688261 -0.725463 0.688261 738.395 409)" fill="#F5F5F5"/>
<rect width="24.2682" height="83.2491" transform="matrix(0.725463 -0.688261 0.725463 0.688261 678 425.703)" fill="#F5F5F5"/>
</svg>
