<svg width="390" height="267" viewBox="0 0 390 267" fill="none" xmlns="http://www.w3.org/2000/svg">
<rect width="390" height="267" fill="#212025"/>
<rect x="141" width="107" height="267" fill="#9C84B8"/>
<rect width="30.368" height="29.2274" transform="matrix(0.561726 0.827323 -0.789477 0.613779 320.074 129)" fill="#F5F5F5"/>
<rect width="12.1467" height="41.6677" transform="matrix(0.743293 0.668966 -0.743293 0.668966 242.972 165)" fill="#F5F5F5"/>
<rect width="12.1467" height="41.6677" transform="matrix(0.743293 -0.668965 0.743293 0.668965 212 173.126)" fill="#F5F5F5"/>
<path d="M110.713 209.376L120.999 251.711L71.6206 233.739L110.713 209.376Z" fill="#F5F5F5"/>
<path d="M139 149.5C139 158.06 132.06 165 123.5 165C114.94 165 108 158.06 108 149.5C108 140.94 114.94 134 123.5 134C132.06 134 139 140.94 139 149.5Z" fill="#F5F5F5"/>
</svg>
