<svg width="834" height="659" viewBox="0 0 834 659" fill="none" xmlns="http://www.w3.org/2000/svg">
<rect width="834" height="659" fill="#212025"/>
<rect x="487" width="276" height="659" fill="#9C84B8"/>
<path d="M583 299C583 315.569 569.121 329 552 329C534.879 329 521 315.569 521 299C521 282.431 534.879 269 552 269C569.121 269 583 282.431 583 299Z" fill="#F5F5F5"/>
<rect width="47.8011" height="48.2757" transform="matrix(0.561726 0.827323 -0.789477 0.613779 736.112 309)" fill="#F5F5F5"/>
<path d="M483.415 419.252L561.237 415.078L518.949 493.457L483.415 419.252Z" fill="#F5F5F5"/>
<rect width="19.1631" height="65.7367" transform="matrix(0.683156 0.730272 -0.683156 0.730272 757.908 449)" fill="#F5F5F5"/>
<rect width="19.1631" height="65.7367" transform="matrix(0.683156 -0.730272 0.683156 0.730272 713 462.994)" fill="#F5F5F5"/>
</svg>
